<svg xmlns="http://www.w3.org/2000/svg" viewBox="0 0 1408.54 1268.42"><defs><style>.cls-1{fill:#0a144f;}.cls-2{fill:#3365ff;}</style></defs><title>Asset 17</title><g id="Layer_2" data-name="Layer 2"><g id="Layer_1-2" data-name="Layer 1"><path class="cls-1" d="M633.53,211.18v0H950.29V0H633.54V0C445.9,0,277.38,81.51,161.34,211.18A631.17,631.17,0,0,0,8.87,527.94,621.68,621.68,0,0,0,0,633.53c0,.23,0,.45,0,.68s0,.45,0,.68A621.77,621.77,0,0,0,8.87,740.48a631.3,631.3,0,0,0,152.47,316.76c116,129.66,284.56,211.18,472.19,211.18v0h227v-1.35h35.67V770.73h-72l-.34-.61H589.44V969.25H697.71v88H633.54v0A420.68,420.68,0,0,1,354.36,951.65c-5.89-5.17-11.58-10.55-17.17-16l.48-.84a420.34,420.34,0,0,1,0-601.13l-.48-.83c5.59-5.49,11.28-10.87,17.17-16.05A420.73,420.73,0,0,1,633.53,211.18Z"/><polygon class="cls-2" points="824.25 770.73 896.23 770.73 896.23 770.12 823.91 770.12 824.25 770.73"/><path class="cls-2" d="M1362.58,1187.34l-68.7-118.82-30.66-53.09-26.62-46.18-23-40a0,0,0,0,0,0,0c-.18.08-.36.18-.54.28l.55-.29a0,0,0,0,1,0,0h0A297.86,297.86,0,0,0,1345.5,572.19c-40.79-115.65-151.18-198.51-280.82-198.51H589.44V572.19h475.24A99.18,99.18,0,0,1,1149.56,620l2.38,4.07a99.3,99.3,0,0,1-37.64,133.31s0,0,0,0-.12.07-.17.12l-2.18,1.19c-.34.19-.68.39-1,.56s-.68.36-1,.53a2.14,2.14,0,0,1-.34.17c-.22.1-.41.22-.63.32l-1.36.65a.74.74,0,0,1-.27.12l-.08,0-.33.15c-1,.47-2,1-3.08,1.4-.56.22-1.11.46-1.65.68l-.87.37c-.44.19-.87.33-1.28.51l-2.65,1c-1.33.46-2.69.89-4,1.3-1.85.54-3.69,1.05-5.58,1.48-.63.17-1.24.32-1.87.44-.39.1-.77.17-1.16.24a8.86,8.86,0,0,1-1.12.22c-.58.12-1.16.24-1.72.34-.19,0-.39.07-.58.1l-.49.07c-.41.07-.82.15-1.23.19l-.66.08-.29.07c-.12,0-.27,0-.39,0-.87.12-1.72.22-2.59.31h-2.55v0h-65.82V968.5l-.11,0,.41.72h-.13l57.27,99.27L1173.57,1257l5.76,10h229.21ZM1172,949.24l-.14.07-.21.07a1,1,0,0,1-.18.07l.17-.07a1.29,1.29,0,0,0,.36-.14l1.2-.47-.83.33Zm-66.4,17.2-1.54.21-.4.05-.4.06c-.83.11-1.66.21-2.5.3l2.9-.36c.86-.11,1.74-.22,2.6-.36l1.32-.19-.82.12-.5.07Zm-37.46,2.76c-1.1,0-2.2,0-3.31,0,1.11,0,2.19,0,3.3,0h0Zm5-.09H1073c1.41,0,2.82-.09,4.21-.14h0C1075.86,969,1074.51,969.08,1073.17,969.11Zm19.26-1.16-.86.07.87-.08h0Zm4.46-.45.64-.08,1.1-.11-1.08.12Zm72.2-17.15.09,0-.13,0Zm-9.52-46.63-35.91-23.24,35.91,23.24,4.4,10.56Zm-27.37,57.81-.11,0-.14,0-.34.08.35-.09a1,1,0,0,0,.24-.05l.3-.07-.24.06Zm-.28.08-.44.1Zm12.46-3.18-.25.07-1,.27Zm9.41-2.8.18,0-.19.06-.15.05Zm1.17-.36.13,0,.32-.1-.32.1Zm3-1a8.81,8.81,0,0,1-.91.3Zm11.41-4.07c.26-.1.52-.19.77-.3a3.93,3.93,0,0,0,.41-.14l-.4.15Zm-96.37-180,0,.12-7.85,35.38,3,32.55-3-32.55,7.86-35.39Zm-8.36,199h4.1l-2.55,0Zm9.47-.16.77,0h-.77Zm5.47-.2-1.71.08,1.72-.09h.2l.44,0-.45,0Zm8.84-.59h.1l-.47,0Zm3.86-.33-.88.08.88-.09.37,0c.23,0,.46,0,.68,0Zm1.68-.15h0Zm7.73-.84-1.73.19,1.73-.2.24,0,.79-.11-.78.12Zm2.38-.33.53-.07.91-.13-.91.14Zm3.46-.48,1.41-.2.48-.06-.48.07Zm2.54-.36,1.55-.25.36,0C1111.4,965.62,1110.76,965.71,1110.12,965.81Zm5.46-.91h0Zm.6-.08-.53.07.54-.08.36-.07h0Zm10.21-2,.65-.15c.71-.14,1.42-.28,2.12-.44l1.2-.27-1.2.28Zm6.26-1.39-.25.06.23-.06.95-.22h0Zm7-1.71c-.75.19-1.5.38-2.25.55l.49-.13c.59-.14,1.18-.28,1.74-.44.87-.21,1.74-.45,2.59-.69l.39-.09-.39.11C1141.39,959.26,1140.53,959.51,1139.68,959.73Zm3.31-.9.09,0h0Zm10.41-3.06h0l.73-.24h0Zm1.44-.46,1.18-.37c-.48.16-1,.32-1.46.47Zm8.86-3h.06l-.21.06Zm4.53-1.63s0,0,0,0h0l0,0Zm.26-.1,1.09-.41.52-.2-.51.21C1169.21,950.33,1168.86,950.48,1168.49,950.61Zm2.67-1h0Zm.21-.08.16-.06.07,0,.24-.09-.23.1A1.7,1.7,0,0,1,1171.37,949.52Zm7.13-2.85-.28.1.27-.11,2.17-.91q3.33-1.43,6.61-2.91a1.21,1.21,0,0,1-.2.09l-.15.07c-1.43.65-2.86,1.29-4.31,1.9-.6.29-1.23.56-1.84.8l.23-.1-.35.15Zm4.12-1.75c-.31.14-.61.28-.91.39h0c.3-.13.62-.25.92-.39,1.39-.6,2.75-1.21,4.11-1.83l-1.86.84Zm6.42-2.87a.62.62,0,0,0-.25.11l-.68.3.68-.31.25-.11c.56-.25,1.12-.52,1.68-.79l-.27.13Zm4.47-2.14-.93.46Zm2.61-1.27-.15.08.14-.07,1.78-.9.91-.46-.91.47C1197.28,938.06,1196.7,938.37,1196.12,938.64Zm10.1-5.25-1.3.72a2.32,2.32,0,0,0-.38.2l.38-.21,1.31-.72c1.09-.56,2.16-1.17,3.23-1.77s2.12-1.21,3.18-1.82l-3.18,1.83C1208.38,932.22,1207.33,932.83,1206.22,933.39Z"/></g></g></svg>